PathFileType	4	(X/Y/Z)	Kaydara	
DataRate	CameraRate	NumFrames	NumMarkers	Units	OrigDataRate	OrigDataStartFrame	OrigNumFrames	
60.00	60.00	4	74	mm	60.00	269	242	
Frame#	Time	Z_lasi			Z_rasi			Z_rpsi			Z_lpsi			Z_fneck			Z_bneck			Z_fhead			Z_rhead			Z_lhead			Z_rshld			Z_relbtop			Z_relbext			Z_relblow			Z_rwrext			Z_rwrtop			Z_rwrlow			Z_lshld			Z_lelbext			Z_lelblow			Z_lelbtop			Z_lwrext			Z_lwrtop			Z_rtopleg			Z_ltopleg			Z_rkneefr			Z_rkneebk			Z_rkneeis			Z_lkneefr			Z_lknssbk			Z_lkneeis			Z_rankfr			Z_rankis			Z_rankbk			Z_lankfr			Z_lankbk			Z_lankis			A_lasi			A_rasi			A_rpsi			A_lpsi			A_fneck			A_bneck			A_fhead			A_rhead			A_lhead			A_rshld			A_relbtop			A_relbext			A_relblow			A_rwrext			A_rwrtop			A_rwrlow			A_lshld			A_lelbext			A_lelblow			A_lelbtop			A_lwrext			A_lwrtop			A_lwrlow			A_rtopleg			A_ltopleg			A_rkneefr			A_rkneebk			A_rkneeis			A_lkneefr			A_lknssbk			A_lkneeis			A_rankfr			A_rankis			A_rankbk			A_lankfr			A_lankbk			A_lankis			Z_lwrlow			
		X1	Y1	Z1	X2	Y2	Z2	X3	Y3	Z3	X4	Y4	Z4	X5	Y5	Z5	X6	Y6	Z6	X7	Y7	Z7	X8	Y8	Z8	X9	Y9	Z9	X10	Y10	Z10	X11	Y11	Z11	X12	Y12	Z12	X13	Y13	Z13	X14	Y14	Z14	X15	Y15	Z15	X16	Y16	Z16	X17	Y17	Z17	X18	Y18	Z18	X19	Y19	Z19	X20	Y20	Z20	X21	Y21	Z21	X22	Y22	Z22	X23	Y23	Z23	X24	Y24	Z24	X25	Y25	Z25	X26	Y26	Z26	X27	Y27	Z27	X28	Y28	Z28	X29	Y29	Z29	X30	Y30	Z30	X31	Y31	Z31	X32	Y32	Z32	X33	Y33	Z33	X34	Y34	Z34	X35	Y35	Z35	X36	Y36	Z36	X37	Y37	Z37	X38	Y38	Z38	X39	Y39	Z39	X40	Y40	Z40	X41	Y41	Z41	X42	Y42	Z42	X43	Y43	Z43	X44	Y44	Z44	X45	Y45	Z45	X46	Y46	Z46	X47	Y47	Z47	X48	Y48	Z48	X49	Y49	Z49	X50	Y50	Z50	X51	Y51	Z51	X52	Y52	Z52	X53	Y53	Z53	X54	Y54	Z54	X55	Y55	Z55	X56	Y56	Z56	X57	Y57	Z57	X58	Y58	Z58	X59	Y59	Z59	X60	Y60	Z60	X61	Y61	Z61	X62	Y62	Z62	X63	Y63	Z63	X64	Y64	Z64	X65	Y65	Z65	X66	Y66	Z66	X67	Y67	Z67	X68	Y68	Z68	X69	Y69	Z69	X70	Y70	Z70	X71	Y71	Z71	X72	Y72	Z72	X73	Y73	Z73	X74	Y74	Z74	

61	4.467	-272.87058	1097.51060	-166.52210	-481.98856	1097.23953	-160.26869	-518.48309	1124.81346	-352.14897	-270.01278	1123.14415	-360.83035	-408.93936	1460.23087	-209.16237	-405.05630	1517.99866	-319.35268	-450.78819	1672.48489	-135.71503	-538.47694	1631.16104	-272.33912	-395.12505	1659.25079	-296.11654	-598.88496	1433.29971	-323.39512	-633.76099	1103.53004	-279.57647	-651.16852	1080.19470	-354.41921	-588.72826	1072.12120	-362.59289	-649.25903	880.25864	-249.57932	-635.88783	899.11407	-210.13592	-591.64917	898.26775	-220.25562	-217.21966	1474.62051	-249.86513	-128.90513	1155.85464	-322.22431	-199.21864	1134.24194	-316.97983	-133.51932	1144.67407	-247.40555	-156.97060	889.04594	-278.75439	-112.06560	884.37637	-259.90295	-562.41467	923.88435	-333.38318	-203.21301	904.05167	-253.55755	-491.99692	421.04042	-282.22935	-522.10060	450.82214	-363.90423	-401.87057	439.05907	-328.73348	-213.30021	439.30069	-211.24977	-205.39473	464.32636	-317.45764	-301.33938	421.63933	-243.25850	-485.39032	181.66319	-335.34153	-417.60765	182.40932	-344.13521	-470.73456	181.67128	-409.92271	-180.43928	173.44601	-253.43399	-215.15682	173.18699	-327.41043	-252.08426	175.76355	-257.88609	15.74934	1037.00356	1207.28699	163.76558	1045.82077	1260.57228	121.62302	1029.86374	1413.64670	-36.70494	1036.37917	1320.42023	62.54968	1376.49445	1315.57404	52.43683	1392.55112	1457.93320	57.97732	1592.66205	1274.13010	149.69362	1552.87338	1414.17053	-12.61106	1535.38239	1417.21085	213.40807	1355.55374	1442.70264	303.69558	1111.54663	1349.85123	283.00106	1053.70056	1370.18555	257.04370	1103.07068	1322.17560	343.82111	1163.34435	1136.45401	328.55339	1122.63466	1128.83957	307.08942	1181.32912	1141.70486	-89.59595	1364.05609	1300.56061	-144.68817	1064.04968	1263.15140	-116.19793	1051.28220	1303.16833	-96.06339	1056.46255	1239.08249	-169.64172	833.26248	1235.71739	-158.74316	838.01102	1191.33987	-126.89917	825.02640	1233.95889	222.14609	865.50667	1394.08630	-76.82605	874.30084	1211.51207	76.33707	408.32756	1375.03662	164.54079	446.29642	1426.84235	178.75683	391.69456	1333.16071	76.04669	434.23988	1257.38747	-36.23149	464.40510	1218.11745	59.96951	414.80446	1151.04507	161.88213	159.92848	1420.81390	89.61144	160.04328	1425.58731	133.71552	162.54278	1496.51947	-47.93756	166.54301	1235.45151	-102.74187	187.74164	1273.69713	-20.74598	176.36517	1308.75412	-92.04364	904.97879	-296.86954 
62	4.483	-273.66611	1097.54044	-167.17865	-482.65312	1096.85493	-160.21271	-519.63619	1125.02220	-351.84292	-271.22561	1124.20776	-361.53294	-410.17708	1459.75861	-207.27224	-407.01233	1518.16772	-317.26156	-452.51907	1672.29218	-133.38873	-540.14484	1630.82550	-269.88440	-396.77311	1658.96332	-293.68879	-600.75054	1433.09341	-320.24124	-636.21189	1103.25516	-281.31924	-652.80724	1080.22911	-356.31264	-590.24708	1072.62833	-364.03069	-649.49501	879.51538	-252.72715	-637.55943	898.43109	-212.84897	-593.06877	898.49777	-221.94262	-218.55749	1475.72449	-250.28206	-125.99738	1160.71892	-330.78030	-196.08814	1138.34259	-327.08057	-131.34270	1147.43065	-256.46820	-154.21418	893.13026	-290.15430	-108.47233	887.02759	-274.62425	-563.31829	923.81592	-334.56795	-204.15310	904.42093	-254.61308	-492.11609	421.08673	-283.13051	-522.25071	450.68089	-364.80274	-402.09148	439.08249	-329.52766	-213.66943	439.42047	-210.05289	-206.59340	464.59160	-316.22976	-301.86535	421.82362	-241.55842	-485.33276	181.60002	-335.25589	-417.55802	182.39376	-344.21074	-470.68882	181.45292	-409.97459	-180.88139	173.84443	-253.35472	-216.18973	173.70380	-327.13730	-252.39477	176.03670	-257.24754	19.16132	1036.91978	1208.29224	167.40194	1046.18134	1258.70758	127.59103	1031.03622	1413.28140	-31.97803	1037.03041	1321.91818	65.22748	1376.95175	1312.88422	56.98856	1393.72543	1455.18158	56.47475	1593.14240	1270.73242	150.54574	1555.52277	1410.27740	-11.59167	1535.15213	1414.87335	220.03019	1356.86630	1436.33163	307.29406	1107.80365	1347.66144	287.02900	1052.19490	1374.13971	257.02074	1096.95770	1320.35004	343.80936	1129.26720	1127.14195	328.20679	1087.91405	1125.80254	306.72907	1147.54784	1126.68976	-87.43270	1362.79037	1301.55899	-140.40730	1061.97128	1267.57431	-110.83996	1049.90997	1306.98853	-92.22858	1054.70108	1242.62207	-163.58248	830.72456	1242.07100	-153.64329	835.24666	1197.54852	-121.04549	823.11974	1239.91180	226.23028	865.74036	1394.13345	-73.72551	875.26459	1213.63724	78.40661	409.05846	1375.61523	166.44197	447.14840	1427.80975	180.41290	392.19563	1334.26636	81.74458	435.51235	1252.43996	-31.27956	465.58636	1215.34615	64.18883	416.67496	1145.65628	162.85507	160.40085	1420.91064	90.37406	160.69340	1425.70099	134.47071	162.92719	1496.42868	-43.96358	168.68427	1234.27666	-97.79401	190.39139	1273.56018	-15.33520	178.69926	1307.06879	-90.26196	907.95753	-312.13261 
63	4.500	-273.86930	1097.55608	-168.28844	-482.91431	1096.49475	-159.86336	-520.99014	1125.18311	-351.09177	-272.73417	1124.90944	-362.56584	-410.76233	1459.40384	-205.60759	-409.06551	1518.42346	-315.45864	-453.85696	1671.62979	-130.58487	-541.57433	1630.52780	-267.20856	-398.21308	1658.88138	-290.90332	-602.60326	1432.84561	-316.59159	-638.83137	1103.00789	-282.51802	-654.52553	1080.34225	-357.89513	-592.01889	1073.07472	-365.19585	-649.56978	878.64990	-255.84860	-639.25346	897.64198	-215.54996	-594.61838	898.49686	-223.70275	-219.84921	1476.89453	-251.67418	-123.39797	1165.33936	-338.36082	-193.07121	1142.30301	-335.08923	-128.56812	1150.41176	-264.48240	-149.59845	896.75018	-299.28350	-103.19165	890.55061	-287.66516	-563.84403	923.60008	-335.04105	-204.97793	904.87007	-256.02007	-492.49706	421.31500	-284.06300	-522.40379	450.48615	-365.87006	-402.18803	438.96954	-330.58327	-213.97190	439.55318	-208.62415	-207.58577	464.85420	-314.70697	-302.20238	422.21317	-239.65303	-485.25856	181.51247	-335.42114	-417.48974	182.36301	-344.41193	-470.59948	181.23518	-410.14816	-181.43103	174.37742	-253.21623	-217.11596	174.37208	-326.64162	-252.92137	176.44136	-256.29368	21.78854	1036.55556	1209.42871	171.12619	1045.86853	1257.43217	133.07839	1031.80328	1411.88217	-27.76251	1037.38594	1323.91937	67.75870	1377.05841	1310.02426	61.64648	1394.71893	1452.14844	54.55735	1593.32184	1267.05185	151.01151	1557.99698	1405.17563	-10.57583	1534.57230	1412.32681	226.80037	1357.79419	1428.83667	310.59166	1103.85323	1344.33960	290.68035	1051.09863	1376.10382	258.97375	1090.90431	1320.45502	343.01556	1093.20114	1119.44839	327.19433	1052.26501	1126.70113	305.56677	1111.20712	1116.27457	-85.17016	1361.39740	1302.67410	-136.30526	1059.83170	1272.78305	-105.39872	1048.21800	1311.53702	-88.58273	1052.88651	1246.52679	-157.13109	828.05672	1248.27278	-148.33255	832.71873	1203.37784	-114.42810	821.13525	1245.03288	230.20712	865.99861	1393.52142	-70.87007	875.76599	1215.33478	79.97583	410.11013	1376.53320	168.57735	447.58568	1428.66318	181.79237	392.69436	1335.01556	87.36213	436.82415	1247.66876	-26.47110	466.54945	1211.93390	68.66018	418.43372	1140.80933	163.70241	160.78159	1420.93796	91.23391	161.38475	1426.04309	135.12897	163.07676	1496.12091	-39.83854	170.75666	1232.80121	-93.39322	192.90848	1273.21922	-10.02633	181.01162	1305.18585	-87.76502	911.05629	-326.61476 
64	4.517	-273.73333	1097.56668	-169.74371	-482.64610	1096.19041	-159.37622	-522.26288	1125.36453	-350.02445	-274.23773	1125.62866	-364.09019	-411.26022	1459.09073	-204.32972	-410.93426	1518.70407	-314.02521	-455.22579	1670.33081	-127.43386	-542.80128	1630.18509	-264.21789	-399.66896	1658.92670	-288.02929	-604.31236	1432.73483	-312.34650	-641.17844	1102.73216	-283.10236	-656.42830	1080.60318	-358.80409	-593.79314	1073.67714	-366.14906	-649.74022	877.93205	-258.61700	-640.68382	896.78116	-217.97054	-596.02215	898.51402	-225.05922	-220.98507	1477.87506	-253.42165	-121.16535	1169.43344	-345.19123	-190.44352	1145.39536	-341.51344	-125.25061	1153.37242	-271.37085	-143.30088	900.14679	-304.98493	-95.62588	894.37531	-298.73943	-564.65832	923.33908	-335.35858	-205.79748	905.28381	-257.73951	-493.18291	421.58546	-284.35810	-522.45228	450.24845	-366.99463	-402.10972	438.95210	-331.86062	-214.09065	439.64417	-206.74603	-208.39539	465.31422	-312.77370	-303.17663	422.62283	-236.82573	-485.20176	181.50364	-335.64556	-417.50084	182.31138	-344.61006	-470.51750	180.97277	-410.45258	-182.14653	174.89773	-252.96284	-218.16584	175.18518	-326.09608	-253.17646	176.85375	-255.35355	23.91820	1035.96878	1210.51010	174.42762	1045.57693	1256.00632	139.03989	1032.74719	1411.16531	-23.73302	1037.63222	1325.60944	70.07852	1376.86752	1306.78787	66.64291	1395.13199	1448.85788	52.32228	1592.99927	1263.46413	151.66265	1560.46280	1400.38788	-9.52270	1533.65204	1409.79279	233.44275	1358.34579	1420.54184	313.59970	1099.03992	1340.00366	294.84905	1049.96460	1377.32895	260.92819	1083.96927	1320.21011	340.83881	1055.24757	1114.66637	325.33962	1016.23962	1130.98854	302.85763	1072.23709	1109.71291	-83.17297	1359.92706	1304.14673	-132.05359	1057.34413	1278.29285	-99.86235	1046.41640	1316.29730	-85.15150	1051.03348	1250.87570	-150.39640	825.25429	1254.09340	-143.22832	830.24673	1209.17336	-108.10595	819.32999	1249.33060	234.20204	866.03661	1392.57416	-68.22639	875.94910	1216.98814	81.50843	410.81371	1377.45132	170.69965	447.86953	1429.01291	183.10266	392.90966	1335.24353	92.70572	437.81857	1242.79358	-21.42685	467.01218	1208.01682	73.43385	420.13916	1135.53017	164.20078	161.05307	1420.95734	91.82157	161.91875	1426.21658	136.33573	163.47073	1496.67221	-35.74534	172.66859	1231.37939	-88.15390	195.63169	1272.49634	-4.77499	183.22702	1303.18314	-84.94663	914.06853	-339.56017 
